<svg width="64" height="64" viewBox="0 0 64 64" fill="none" xmlns="http://www.w3.org/2000/svg">
<path d="M56.4525 17.5189L32.0825 3.4502L7.71375 17.5189V45.6577L32.0825 59.7277L56.4525 45.6577V17.5189Z" fill="#212740"/>
<path d="M52.9749 19.5261L32.0824 7.46484L11.1912 19.5261V43.6498L32.0824 55.7124L52.9749 43.6498V19.5261Z" fill="white"/>
<path d="M13.1111 44.7638L52.9599 21.6026L50.9949 18.3301L11.1761 41.3201L13.1111 44.7638Z" fill="#5B1096"/>
<path d="M52.9599 21.6088L50.9949 18.3301C44.6861 21.9726 38.3774 25.6151 32.0674 29.2576C32.0674 30.7538 32.0674 32.2488 32.0674 33.7451C39.0324 29.7001 45.9961 25.6551 52.9599 21.6088Z" fill="#B31CE7"/>
<path d="M11.1761 21.6037L51.0149 44.7812L52.9749 41.3124L13.1261 18.4087L11.1761 21.6037Z" fill="#B31CE7"/>
<path d="M32.0686 31.7562L33.1524 29.9199L13.1261 18.4087L11.1761 21.6037L31.2324 33.2724L32.0686 31.7562Z" fill="#5B1096"/>
<path d="M32.0687 54.6814L32.0775 8.63135H30.0625L30.2862 54.6814" fill="#5B1096"/>
<path d="M33.8538 54.6847L34.0888 8.63477H32.0688V54.6847" fill="#B31CE7"/>
<path d="M9.40997 22.0502C11.4624 22.0502 13.1262 20.3864 13.1262 18.3339C13.1262 16.2815 11.4624 14.6177 9.40997 14.6177C7.35755 14.6177 5.69373 16.2815 5.69373 18.3339C5.69373 20.3864 7.35755 22.0502 9.40997 22.0502Z" fill="#E61284"/>
<path d="M9.40998 18.3339V22.0502C7.37123 22.0502 5.69373 20.3727 5.69373 18.3339C5.69373 16.2952 7.37123 14.6177 9.40998 14.6177V18.3339Z" fill="#7B124C"/>
<path d="M32.0888 38.9049L38.3026 35.3111L38.2976 28.1311L32.0775 24.5474L25.8625 28.1411L25.8688 35.3199L32.0888 38.9049Z" fill="#7B124C"/>
<path d="M32.0826 31.6861V38.9023L25.8688 35.3198L25.8625 28.1411L32.0826 24.5498V31.6861Z" fill="#E61284"/>
<path d="M54.7263 22.0502C56.7787 22.0502 58.4425 20.3864 58.4425 18.3339C58.4425 16.2815 56.7787 14.6177 54.7263 14.6177C52.6738 14.6177 51.01 16.2815 51.01 18.3339C51.01 20.3864 52.6738 22.0502 54.7263 22.0502Z" fill="#E61284"/>
<path d="M54.7263 18.3339V22.0502C52.6875 22.0502 51.01 20.3727 51.01 18.3339C51.01 16.2952 52.6875 14.6177 54.7263 14.6177V18.3339Z" fill="#7B124C"/>
<path d="M9.40997 48.3012C11.4624 48.3012 13.1262 46.6373 13.1262 44.5849C13.1262 42.5325 11.4624 40.8687 9.40997 40.8687C7.35755 40.8687 5.69373 42.5325 5.69373 44.5849C5.69373 46.6373 7.35755 48.3012 9.40997 48.3012Z" fill="#E61284"/>
<path d="M9.40998 44.5849V48.3012C7.37123 48.3012 5.69373 46.6236 5.69373 44.5849C5.69373 42.5461 7.37123 40.8687 9.40998 40.8687V44.5849Z" fill="#7B124C"/>
<path d="M54.7263 48.3012C56.7787 48.3012 58.4425 46.6373 58.4425 44.5849C58.4425 42.5325 56.7787 40.8687 54.7263 40.8687C52.6738 40.8687 51.01 42.5325 51.01 44.5849C51.01 46.6373 52.6738 48.3012 54.7263 48.3012Z" fill="#E61284"/>
<path d="M54.7263 44.5849V48.3012C52.6875 48.3012 51.01 46.6236 51.01 44.5849C51.01 42.5461 52.6875 40.8687 54.7263 40.8687V44.5849Z" fill="#7B124C"/>
<path d="M32.0776 61.6537C34.13 61.6537 35.7938 59.9899 35.7938 57.9374C35.7938 55.885 34.13 54.2212 32.0776 54.2212C30.0251 54.2212 28.3613 55.885 28.3613 57.9374C28.3613 59.9899 30.0251 61.6537 32.0776 61.6537Z" fill="#E61284"/>
<path d="M32.0776 57.9374V61.6537C30.0388 61.6537 28.3613 59.9762 28.3613 57.9374C28.3613 55.8987 30.0388 54.2212 32.0776 54.2212V57.9374Z" fill="#7B124C"/>
<path d="M32.0776 9.23133C34.13 9.23133 35.7938 7.56751 35.7938 5.51508C35.7938 3.46265 34.13 1.79883 32.0776 1.79883C30.0251 1.79883 28.3613 3.46265 28.3613 5.51508C28.3613 7.56751 30.0251 9.23133 32.0776 9.23133Z" fill="#E61284"/>
<path d="M32.0776 5.51508V9.23133C30.0388 9.23133 28.3613 7.55383 28.3613 5.51508C28.3613 3.47633 30.0388 1.79883 32.0776 1.79883V5.51508Z" fill="#7B124C"/>
</svg>
